{
    "asset" : {
        "generator" : "Khronos glTF Blender I/O v1.2.75",
        "version" : "2.0"
    },
    "scene" : 0,
    "scenes" : [
        {
            "name" : "Scene",
            "nodes" : [
                0,
                1,
                2
            ]
        }
    ],
    "nodes" : [
        {
            "mesh" : 0,
            "name" : "Mobile",
            "scale" : [
                3.187469244003296,
                3.187469244003296,
                0.19961676001548767
            ]
        },
        {
            "name" : "Camera",
            "rotation" : [
                0.483536034822464,
                0.33687159419059753,
                -0.20870360732078552,
                0.7804827094078064
            ],
            "translation" : [
                7.358891487121582,
                4.958309173583984,
                6.925790786743164
            ]
        },
        {
            "mesh" : 1,
            "name" : "MobileScreen",
            "scale" : [
                3.187469244003296,
                3.187469244003296,
                0.19961676001548767
            ]
        }
    ],
    "materials" : [
        {
            "doubleSided" : true,
            "emissiveFactor" : [
                0,
                0,
                0
            ],
            "name" : "Material",
            "pbrMetallicRoughness" : {
                "baseColorFactor" : [
                    1,
                    1,
                    1,
                    1
                ],
                "metallicFactor" : 0,
                "roughnessFactor" : 1
            }
        },
        {
            "doubleSided" : true,
            "emissiveFactor" : [
                0,
                0,
                0
            ],
            "name" : "Material.002",
            "pbrMetallicRoughness" : {
                "baseColorFactor" : [
                    1,
                    1,
                    1,
                    1
                ],
                "metallicFactor" : 0,
                "roughnessFactor" : 1
            }
        }
    ],
    "meshes" : [
        {
            "name" : "Cube",
            "primitives" : [
                {
                    "attributes" : {
                        "POSITION" : 0,
                        "NORMAL" : 1,
                        "TEXCOORD_0" : 2
                    },
                    "indices" : 3,
                    "material" : 0
                }
            ]
        },
        {
            "name" : "Cube.001",
            "primitives" : [
                {
                    "attributes" : {
                        "POSITION" : 4,
                        "NORMAL" : 5,
                        "TEXCOORD_0" : 6
                    },
                    "indices" : 7,
                    "material" : 1
                }
            ]
        }
    ],
    "accessors" : [
        {
            "bufferView" : 0,
            "componentType" : 5126,
            "count" : 15348,
            "max" : [
                1,
                2.127868175506592,
                2.090810537338257
            ],
            "min" : [
                -1,
                -2.062441349029541,
                -1
            ],
            "type" : "VEC3"
        },
        {
            "bufferView" : 1,
            "componentType" : 5126,
            "count" : 15348,
            "type" : "VEC3"
        },
        {
            "bufferView" : 2,
            "componentType" : 5126,
            "count" : 15348,
            "type" : "VEC2"
        },
        {
            "bufferView" : 3,
            "componentType" : 5123,
            "count" : 23250,
            "type" : "SCALAR"
        },
        {
            "bufferView" : 4,
            "componentType" : 5126,
            "count" : 15500,
            "max" : [
                1,
                2.127868175506592,
                2.0913197994232178
            ],
            "min" : [
                -1,
                -2.062441349029541,
                -1
            ],
            "type" : "VEC3"
        },
        {
            "bufferView" : 5,
            "componentType" : 5126,
            "count" : 15500,
            "type" : "VEC3"
        },
        {
            "bufferView" : 6,
            "componentType" : 5126,
            "count" : 15500,
            "type" : "VEC2"
        },
        {
            "bufferView" : 7,
            "componentType" : 5123,
            "count" : 23700,
            "type" : "SCALAR"
        }
    ],
    "bufferViews" : [
        {
            "buffer" : 0,
            "byteLength" : 184176,
            "byteOffset" : 0
        },
        {
            "buffer" : 0,
            "byteLength" : 184176,
            "byteOffset" : 184176
        },
        {
            "buffer" : 0,
            "byteLength" : 122784,
            "byteOffset" : 368352
        },
        {
            "buffer" : 0,
            "byteLength" : 46500,
            "byteOffset" : 491136
        },
        {
            "buffer" : 0,
            "byteLength" : 186000,
            "byteOffset" : 537636
        },
        {
            "buffer" : 0,
            "byteLength" : 186000,
            "byteOffset" : 723636
        },
        {
            "buffer" : 0,
            "byteLength" : 124000,
            "byteOffset" : 909636
        },
        {
            "buffer" : 0,
            "byteLength" : 47400,
            "byteOffset" : 1033636
        }
    ],
    "buffers" : [
        {
            "byteLength" : 1081036,
            "uri" : "data:application/octet-stream;base64,"
        }
    ]
}
